<?xml version="1.0" encoding="UTF-8"?>
<svg enable-background="new 0 0 288 288" viewBox="0 0 288 288" xmlns="http://www.w3.org/2000/svg">
 <path d="m5.094,134.08 128.99-128.99c5.456-5.46 14.393-5.46 19.844,0l128.99,128.99c5.457,5.459 5.457,14.389 0,19.844l-128.98,128.99c-5.451,5.459-14.388,5.459-19.844,0l-129-128.99c-5.452-5.45-5.452-14.38.004-19.84z" fill="#ffd520"/>
 <path d="m133.38,4.384-128.98,129c-5.859,5.859-5.859,15.391 0,21.254l128.98,128.99c2.82,2.82 6.59,4.38 10.62,4.38s7.799-1.555 10.629-4.383l128.98-128.99c5.859-5.863 5.859-15.395 0-21.254l-128.98-129c-2.83-2.824-6.6-4.38-10.63-4.38s-7.8,1.556-10.62,4.384zm1.4,277.84-128.98-129c-2.453-2.451-3.803-5.729-3.803-9.223s1.35-6.768 3.803-9.219l128.98-128.99c2.452-2.452 5.729-3.802 9.223-3.802s6.775,1.35 9.223,3.802l128.98,128.99c5.082,5.082 5.082,13.355 0,18.441l-128.98,128.99c-5.08,5.09-13.36,5.09-18.44.01z" fill="#231f20"/>
 <path d="m8.201,136.13 127.93-127.93c4.327-4.332 11.41-4.332 15.742,0l127.92,127.93c4.326,4.332 4.326,11.414 0,15.742l-127.92,127.93c-4.332,4.328-11.415,4.328-15.742,0l-127.93-127.93c-4.322-4.33-4.322-11.41.001-15.74" fill="#231f20" fill-rule="evenodd"/>
 <path d="m12.203,140.07 127.86-127.87c2.166-2.164 5.712-2.164 7.868,0l127.87,127.87c2.162,2.16 2.162,5.703 0,7.863l-127.87,127.87c-2.156,2.164-5.702,2.164-7.868,0l-127.86-127.87c-2.159-2.16-2.159-5.7.003-7.86" fill="#ffd520" fill-rule="evenodd"/>
 <path d="m216.22,127.27-.61.92-.63.89-.66.87-.7.84-.72.83-.75.79-.77.77-.81.75-.82.72-.85.69-.87.66-.89.63-.91.61-.94.56-.45.27-6.07,9.1-10.2,4.86-12.64,19.44-.39.39-.43.11-.45.07-.45.04-.45.01-.45-.04-.45-.07-.13-.03-.29.13-.3.1-.32.07-.31.03-.32-.01-.32-.04-.31-.08-.29-.11-.29-.15-.26-.18-.24-.21-.22-.23-.19-.26-.15-.28-.12-.29-.04-.11-.15-.44-.11-.45-.08-.46-.04-.46-.01-.46 .04-.46 .07-.46 .1-.45 .08-.25 .06-.13 .09-.12 .12-.08 .13-.06 .15-.02 .15.02 .14.05 .12.08 .1.11 .06.13 1.02,2.84v-.01l.22.13 .24.1 .25.07 .25.04 .26-.01 .25-.04 .25-.08 .23-.12 .21-.14 .19-.17 .16-.2 .14-.22 .07-.17 3.4-19.4v.01l.09-.2 .05-.21 .02-.22-.02-.22-.05-.21-.09-.19-.12-.19-.15-.15-.17-.14-.19-.1-.21-.06-.22-.03h-.09l-6.4-1.87-.15-.03-.15.02-.13.04-.18.13-.8.89-.78.9-.75.94-.72.95-.69.98-.67,1-.63,1.02-.6,1.03-.56,1.06-.54,1.07-.13.28-.16.38-.13.4-.09.41-.06.41-.01.2-.07,1.85-.03,1.86v1.86l.04,1.85 .08,1.85 .12,1.85 .14,1.85 .19,1.85 .22,1.84 .27,1.84 .29,1.83 .33,1.82 .37,1.82 .41,1.81 .44,1.8 .23.89 .12.4 .16.39 .19.37 .23.35 .25.33 .29.31 .3.28 .34.25 .35.23 .37.19 .38.16 .22.07l38.42,11.75 .2.05h.21l.21-.03 .19-.06 .05-.02 .34-.15 .36-.11 .36-.07 .37-.04h.38l.36.04 .37.06 .17.05 .62.17 .61.2 .6.24 .59.27 .56.31 .2.12 .38.35 .41.31 .42.3 .45.25 .44.22 .14.12 .1.14 .09.16 .04.18v.17l-.03.18-.06.16-.1.15-.13.13-.15.1-.17.06-.17.03-.18-.01-.06-.01-.16-.09-.18-.06-.19-.03-.18.01-.18.06-.17.08-.14.11-.13.14-.09.16-.06.18-.02.12-.07.19-.1.19-.13.16-.16.14-.18.11-.2.07-.2.04-.21.01-.21-.03-.2-.07-.07-.04-.59-.11-.59-.08-.59-.04h-.59l-.6.04-.58.07-.54.1-.65-.03-.66-.07-.64-.11-.64-.14-.63-.18-.62-.21-.61-.25-.59-.28-.58-.31-.31-.19v-.01l-38.82-6.57-.5-.1-.49-.13-.48-.18-.47-.2-.45-.24-.43-.27-.42-.31-.4-.32-.36-.36-.34-.38-.31-.41-.28-.42-.25-.45-.22-.46-.18-.48-.15-.49-.12-.48-.39-1.9-.42-1.89-.46-1.88-.5-1.87-.53-1.87-.57-1.85-.6-1.83-.64-1.84-.66-1.82-.71-1.8-.74-1.79-.77-1.78-.81-1.75-.84-1.75-.87-1.73-.91-1.72-.94-1.69-.16-.29-4.04-8.07-1.04-.34-1.02-.38-1.02-.41-1-.45-.99-.47-.97-.51-.95-.55-.93-.57-.92-.6-.89-.64-.87-.67-.26-.2-17.01-15.36l-.24-.18-.25-.16-.27-.12-.28-.09-.29-.05-.29-.02-.3.03-.29.06-.28.09-.27.13-.24.16-.13.09-1.47,1.22-1.51,1.2-1.51,1.16-1.55,1.13-1.56,1.1-1.59,1.08-1.608,1.03-1.622,1.02-1.646.98-1.665.94-1.683.92-1.696.89-1.714.84-1.733.82-1.746.79-1.763.75-1.773.72-1.788.68-1.802.65-1.816.61-1.824.58-1.834.54-1.847.51-.055.02-.978.28-.985.24-.993.2-1,.17-1.009.14-1.008.09-1.014.06-1.018.03-1.013-.02-1.02-.04-1.007-.09-1.008-.12-1.004-.16-.996-.2-.99-.22-.98-.28-.967-.3-.958-.34-.945-.37-.93-.4-.916-.43-.9-.48-.886-.5-.86-.54-.845-.56-.821-.6-.801-.62-.775-.65-.756-.69-.73-.7-.702-.73-.672-.77-.647-.77-.62-.81-.59-.83-.556-.85-.532-.87-.495-.88-.462-.9-.431-.92-.399-.94-.363-.95-.329-.96-.293-.96-.258-.99-.224-.99-.188-1-.152-1-.054-.45 .297.87 .334.85 .372.85 .4.83 .434.8 .464.8 .5.77 .527.75 .56.73 .582.72 .614.68 .642.66 .664.63 .691.6 .718.58 .737.55 .757.52 .778.49 .799.46 .816.42 .828.4 .849.35 .857.33 .876.29 .881.25 .893.22 .899.19 .908.15 .913.11 .917.07 .916.04h.922l.916-.04 .916-.06 .915-.11 .906-.15 .903-.18 .34-.08 1.362-.45 1.347-.5 1.34-.53 1.32-.56 1.306-.59 1.292-.62 1.276-.66 .527-.29 1.71-1.01 1.696-1.03 1.673-1.07 1.651-1.1 1.636-1.12 1.609-1.16 1.591-1.19 1.568-1.22 1.545-1.24 1.522-1.27 1.499-1.31 1.477-1.33 1.449-1.36 1.42-1.38 1.399-1.41 1.376-1.43 1.086-1.18 1.884-2.44 1.913-2.42 1.94-2.41 1.97-2.37 1.99-2.35 2.02-2.33 2.06-2.3 2.07-2.28 .58-.623 1.26-1.309 1.28-1.278 1.31-1.25 1.34-1.23 1.36-1.196 1.38-1.173 1.41-1.141 1.42-1.116 1.46-1.086 1.47-1.056 .53-.364 .94-.601 .95-.563 .97-.538 .99-.5 1-.473 1.02-.435 1.04-.397 1.04-.373 1.05-.329 1.07-.299 1.08-.263 1.09-.226 1.09-.189 1.09-.157 1.11-.116 1.1-.079 1.11-.043 .73-.014 1.04.057 1.04.087 1.04.127 1.03.161 1.03.2 1.02.234 1,.265 1,.307 .99.339 .97.379 .96.406 .95.44 .93.479 .91.508 .89.537 .88.567 .85.601 .53.4 1.33,1.003 1.3,1.037 1.28,1.063 1.26,1.092 1.23,1.118 1.21,1.147 1.17,1.172 1.16,1.202 1.13,1.225 1.11,1.246 1.06,1.268 1.05,1.3 1.02,1.31 .35.48 1.17,1.31 1.14,1.34 1.11,1.37 1.09,1.38 1.06,1.42 .98,1.36 .33.41 .35.38 .39.36 .41.33 .42.3 .45.27 .47.24 .46.21 2.18.79 2.19.77 2.2.73 1.54.49 .35.17 .37.14 .38.11 .39.07 .39.03 .4-.01 .39-.03 .39-.08 .37-.12 .37-.14 .35-.18 .33-.22 .04-.03 8.8-5.7-5.5-3.04-.83-.48-.85-.44-.86-.41-.1-.04-.45-.29-.43-.32-.4-.34-.38-.38-.36-.39-.32-.42-.2-.29-.26-.46-.29-.44-.32-.43-.35-.39-.37-.38-.4-.35-.14-.1-.2-.12-.18-.15-.16-.19-.12-.19-.1-.22-.06-.22-.02-.24 .01-.232 .05-.23 .09-.22 .11-.201 .15-.185 .18-.16 .19-.128 .22-.094 .22-.066 .24-.029 .23.014 .22.042 .68.317 .69.284 .71.248 .72.214 .73.18 .74.142 .74.114 .22.02 .66.24 .67.27 .65.31 .64.33 .61.38 .6.4 .57.43 .13.1 .95.68 .92.71 .9.74 .87.77 .86.79 .82.82 .8.85-.01.14 .02.13 .05.13 .09.1 .11.08 .13.05 .13.01 .14-.02 .12-.06 .1-.09 .08-.12 .04-.1 .29-.14 .31-.1 .33-.07 .33-.03 .32.01 .33.04 .32.08 .31.12 .06.21 .11.19 .13.18 .16.14 .18.13 .21.09 .21.05 .22.02 .22-.01 .03-.01 1.25.95 1.29.93 .84.58 .05.21 .09.2 .11.17 .14.16 .18.13 .18.1 .21.06 .16.02 1.64.91 1.63.93 1.61.95 1.59.99 1.57,1.03 1.55,1.05 1.53,1.08 .76.56 .26.13 .22.16 .21.19 .18.21 .15.23 .12.26 .08.27 .03.15 .24.13 .22.16 .2.18 .16.21 .15.23 .1.25 .07.26 .04.27v.27l-.03.22-.04.33-.08.32-.12.31-.15.3-.17.27-.21.26-.24.23-.26.2-.28.18-.3.14-.32.11-.31.07-.33.03h-.33l-.33-.03-.32-.08-.32-.11-.28-.14-.18-.17-.19-.14-.22-.11-.24-.08-.23-.04h-.25l-.24.03-.23.07-.16.06-.93.09-.93.05-.94.02-.93-.02-.41-.02l-.5.23-.52.2-.52.17-.54.13-.54.1-.37.04h-.01l-1.84.14-1.84.11-1.84.08-1.84.04h-1.66l-.16.07z" fill="#221e1f" fill-rule="evenodd"/>
</svg>
